<mxfile host="app.diagrams.net" modified="2023-10-28T12:39:11.729Z" agent="Mozilla/5.0 (Windows NT 10.0; Win64; x64; rv:109.0) Gecko/20100101 Firefox/119.0" etag="Kl71el5ilj0wn_yT051r" version="22.0.8" type="github">
  <diagram name="Page-1" id="4vaZD6aFRvWip1wH8n_Y">
    <mxGraphModel dx="1322" dy="781" grid="1" gridSize="10" guides="1" tooltips="1" connect="1" arrows="1" fold="1" page="1" pageScale="1" pageWidth="850" pageHeight="1100" math="0" shadow="0">
      <root>
        <mxCell id="0" />
        <mxCell id="1" parent="0" />
        <mxCell id="oy7YL8Xd5E4N8mvJYCTs-1" value="&lt;div&gt;Korisnik&lt;/div&gt;" style="rounded=0;whiteSpace=wrap;html=1;" parent="1" vertex="1">
          <mxGeometry x="160" y="90" width="120" height="60" as="geometry" />
        </mxCell>
        <mxCell id="oy7YL8Xd5E4N8mvJYCTs-9" value="Ime" style="ellipse;whiteSpace=wrap;html=1;align=center;" parent="1" vertex="1">
          <mxGeometry x="30" y="30" width="50" height="20" as="geometry" />
        </mxCell>
        <mxCell id="oy7YL8Xd5E4N8mvJYCTs-10" value="Prezime" style="ellipse;whiteSpace=wrap;html=1;align=center;" parent="1" vertex="1">
          <mxGeometry x="90" y="30" width="80" height="20" as="geometry" />
        </mxCell>
        <mxCell id="oy7YL8Xd5E4N8mvJYCTs-11" value="&lt;div&gt;&lt;u&gt;Korisnicko ime&lt;/u&gt;&lt;/div&gt;" style="ellipse;whiteSpace=wrap;html=1;align=center;" parent="1" vertex="1">
          <mxGeometry x="180" y="20" width="70" height="40" as="geometry" />
        </mxCell>
        <mxCell id="oy7YL8Xd5E4N8mvJYCTs-12" value="E-mail" style="ellipse;whiteSpace=wrap;html=1;align=center;" parent="1" vertex="1">
          <mxGeometry x="260" y="20" width="60" height="20" as="geometry" />
        </mxCell>
        <mxCell id="oy7YL8Xd5E4N8mvJYCTs-13" value="&lt;div&gt;Ragjanje&lt;/div&gt;" style="ellipse;whiteSpace=wrap;html=1;align=center;" parent="1" vertex="1">
          <mxGeometry x="330" y="25" width="60" height="30" as="geometry" />
        </mxCell>
        <mxCell id="oy7YL8Xd5E4N8mvJYCTs-14" value="&lt;div&gt;Datum registracija&lt;/div&gt;" style="ellipse;whiteSpace=wrap;html=1;align=center;" parent="1" vertex="1">
          <mxGeometry x="345" y="60" width="70" height="40" as="geometry" />
        </mxCell>
        <mxCell id="oy7YL8Xd5E4N8mvJYCTs-15" value="&lt;div&gt;Pol&lt;/div&gt;" style="ellipse;whiteSpace=wrap;html=1;align=center;" parent="1" vertex="1">
          <mxGeometry x="320" y="100" width="50" height="20" as="geometry" />
        </mxCell>
        <mxCell id="oy7YL8Xd5E4N8mvJYCTs-18" value="" style="endArrow=none;html=1;rounded=0;entryX=0;entryY=0;entryDx=0;entryDy=0;exitX=0.5;exitY=1;exitDx=0;exitDy=0;" parent="1" source="oy7YL8Xd5E4N8mvJYCTs-9" target="oy7YL8Xd5E4N8mvJYCTs-1" edge="1">
          <mxGeometry width="50" height="50" relative="1" as="geometry">
            <mxPoint x="110" y="340" as="sourcePoint" />
            <mxPoint x="160" y="290" as="targetPoint" />
          </mxGeometry>
        </mxCell>
        <mxCell id="oy7YL8Xd5E4N8mvJYCTs-19" value="" style="endArrow=none;html=1;rounded=0;entryX=0.25;entryY=0;entryDx=0;entryDy=0;exitX=1;exitY=1;exitDx=0;exitDy=0;" parent="1" source="oy7YL8Xd5E4N8mvJYCTs-10" target="oy7YL8Xd5E4N8mvJYCTs-1" edge="1">
          <mxGeometry width="50" height="50" relative="1" as="geometry">
            <mxPoint x="65" y="60" as="sourcePoint" />
            <mxPoint x="170" y="100" as="targetPoint" />
          </mxGeometry>
        </mxCell>
        <mxCell id="oy7YL8Xd5E4N8mvJYCTs-20" value="" style="endArrow=none;html=1;rounded=0;entryX=0.5;entryY=0;entryDx=0;entryDy=0;exitX=0.5;exitY=1;exitDx=0;exitDy=0;" parent="1" source="oy7YL8Xd5E4N8mvJYCTs-11" target="oy7YL8Xd5E4N8mvJYCTs-1" edge="1">
          <mxGeometry width="50" height="50" relative="1" as="geometry">
            <mxPoint x="168" y="57" as="sourcePoint" />
            <mxPoint x="200" y="100" as="targetPoint" />
          </mxGeometry>
        </mxCell>
        <mxCell id="oy7YL8Xd5E4N8mvJYCTs-21" value="" style="endArrow=none;html=1;rounded=0;entryX=0.633;entryY=-0.033;entryDx=0;entryDy=0;exitX=0.5;exitY=1;exitDx=0;exitDy=0;entryPerimeter=0;" parent="1" source="oy7YL8Xd5E4N8mvJYCTs-12" target="oy7YL8Xd5E4N8mvJYCTs-1" edge="1">
          <mxGeometry width="50" height="50" relative="1" as="geometry">
            <mxPoint x="178" y="67" as="sourcePoint" />
            <mxPoint x="210" y="110" as="targetPoint" />
          </mxGeometry>
        </mxCell>
        <mxCell id="oy7YL8Xd5E4N8mvJYCTs-22" value="" style="endArrow=none;html=1;rounded=0;entryX=1;entryY=0;entryDx=0;entryDy=0;exitX=0;exitY=1;exitDx=0;exitDy=0;" parent="1" source="oy7YL8Xd5E4N8mvJYCTs-13" target="oy7YL8Xd5E4N8mvJYCTs-1" edge="1">
          <mxGeometry width="50" height="50" relative="1" as="geometry">
            <mxPoint x="188" y="77" as="sourcePoint" />
            <mxPoint x="220" y="120" as="targetPoint" />
          </mxGeometry>
        </mxCell>
        <mxCell id="oy7YL8Xd5E4N8mvJYCTs-23" value="" style="endArrow=none;html=1;rounded=0;entryX=0;entryY=0.5;entryDx=0;entryDy=0;exitX=1;exitY=0.25;exitDx=0;exitDy=0;" parent="1" source="oy7YL8Xd5E4N8mvJYCTs-1" target="oy7YL8Xd5E4N8mvJYCTs-14" edge="1">
          <mxGeometry width="50" height="50" relative="1" as="geometry">
            <mxPoint x="198" y="87" as="sourcePoint" />
            <mxPoint x="230" y="130" as="targetPoint" />
          </mxGeometry>
        </mxCell>
        <mxCell id="oy7YL8Xd5E4N8mvJYCTs-24" value="" style="endArrow=none;html=1;rounded=0;exitX=0;exitY=0.5;exitDx=0;exitDy=0;entryX=1;entryY=0.5;entryDx=0;entryDy=0;" parent="1" source="oy7YL8Xd5E4N8mvJYCTs-15" target="oy7YL8Xd5E4N8mvJYCTs-1" edge="1">
          <mxGeometry width="50" height="50" relative="1" as="geometry">
            <mxPoint x="208" y="97" as="sourcePoint" />
            <mxPoint x="240" y="140" as="targetPoint" />
          </mxGeometry>
        </mxCell>
        <mxCell id="oy7YL8Xd5E4N8mvJYCTs-25" value="&lt;div&gt;Turisticko mesto&lt;/div&gt;" style="rounded=0;whiteSpace=wrap;html=1;" parent="1" vertex="1">
          <mxGeometry x="660" y="425" width="120" height="60" as="geometry" />
        </mxCell>
        <mxCell id="oy7YL8Xd5E4N8mvJYCTs-26" value="&lt;u&gt;Ime&lt;/u&gt;" style="ellipse;whiteSpace=wrap;html=1;align=center;" parent="1" vertex="1">
          <mxGeometry x="862.5" y="395" width="55" height="30" as="geometry" />
        </mxCell>
        <mxCell id="oy7YL8Xd5E4N8mvJYCTs-27" value="" style="endArrow=none;html=1;rounded=0;entryX=0;entryY=0.5;entryDx=0;entryDy=0;exitX=1;exitY=0.5;exitDx=0;exitDy=0;" parent="1" source="oy7YL8Xd5E4N8mvJYCTs-25" target="oy7YL8Xd5E4N8mvJYCTs-26" edge="1">
          <mxGeometry width="50" height="50" relative="1" as="geometry">
            <mxPoint x="753.75" y="340" as="sourcePoint" />
            <mxPoint x="803.75" y="290" as="targetPoint" />
          </mxGeometry>
        </mxCell>
        <mxCell id="oy7YL8Xd5E4N8mvJYCTs-28" value="" style="endArrow=none;html=1;rounded=0;entryX=0.5;entryY=1;entryDx=0;entryDy=0;exitX=0.5;exitY=0;exitDx=0;exitDy=0;" parent="1" source="oy7YL8Xd5E4N8mvJYCTs-29" target="oy7YL8Xd5E4N8mvJYCTs-25" edge="1">
          <mxGeometry width="50" height="50" relative="1" as="geometry">
            <mxPoint x="890" y="430" as="sourcePoint" />
            <mxPoint x="933.75" y="360" as="targetPoint" />
          </mxGeometry>
        </mxCell>
        <mxCell id="oy7YL8Xd5E4N8mvJYCTs-29" value="d" style="ellipse;whiteSpace=wrap;html=1;align=center;" parent="1" vertex="1">
          <mxGeometry x="703.75" y="615" width="32.5" height="30" as="geometry" />
        </mxCell>
        <mxCell id="oy7YL8Xd5E4N8mvJYCTs-31" value="Grad" style="rounded=0;whiteSpace=wrap;html=1;" parent="1" vertex="1">
          <mxGeometry x="400" y="770" width="120" height="60" as="geometry" />
        </mxCell>
        <mxCell id="oy7YL8Xd5E4N8mvJYCTs-33" value="" style="endArrow=none;html=1;rounded=0;exitX=1;exitY=0;exitDx=0;exitDy=0;entryX=0;entryY=1;entryDx=0;entryDy=0;" parent="1" source="oy7YL8Xd5E4N8mvJYCTs-31" target="oy7YL8Xd5E4N8mvJYCTs-29" edge="1">
          <mxGeometry width="50" height="50" relative="1" as="geometry">
            <mxPoint x="785" y="600" as="sourcePoint" />
            <mxPoint x="835" y="550" as="targetPoint" />
          </mxGeometry>
        </mxCell>
        <mxCell id="oy7YL8Xd5E4N8mvJYCTs-34" value="" style="endArrow=none;html=1;rounded=0;exitX=0;exitY=0;exitDx=0;exitDy=0;entryX=1;entryY=1;entryDx=0;entryDy=0;" parent="1" source="oy7YL8Xd5E4N8mvJYCTs-124" target="oy7YL8Xd5E4N8mvJYCTs-29" edge="1">
          <mxGeometry width="50" height="50" relative="1" as="geometry">
            <mxPoint x="901" y="770" as="sourcePoint" />
            <mxPoint x="894" y="556" as="targetPoint" />
          </mxGeometry>
        </mxCell>
        <mxCell id="oy7YL8Xd5E4N8mvJYCTs-35" value="Ime na drzava" style="ellipse;whiteSpace=wrap;html=1;align=center;" parent="1" vertex="1">
          <mxGeometry x="410" y="690" width="100" height="40" as="geometry" />
        </mxCell>
        <mxCell id="oy7YL8Xd5E4N8mvJYCTs-36" value="" style="endArrow=none;html=1;rounded=0;exitX=0.5;exitY=0;exitDx=0;exitDy=0;entryX=0.5;entryY=1;entryDx=0;entryDy=0;" parent="1" source="oy7YL8Xd5E4N8mvJYCTs-31" target="oy7YL8Xd5E4N8mvJYCTs-35" edge="1">
          <mxGeometry width="50" height="50" relative="1" as="geometry">
            <mxPoint x="760" y="720" as="sourcePoint" />
            <mxPoint x="809" y="656" as="targetPoint" />
          </mxGeometry>
        </mxCell>
        <mxCell id="oy7YL8Xd5E4N8mvJYCTs-37" value="Adresa" style="ellipse;whiteSpace=wrap;html=1;align=center;" parent="1" vertex="1">
          <mxGeometry x="895" y="691" width="70" height="40" as="geometry" />
        </mxCell>
        <mxCell id="oy7YL8Xd5E4N8mvJYCTs-38" value="" style="endArrow=none;html=1;rounded=0;exitX=0.25;exitY=0;exitDx=0;exitDy=0;entryX=0.5;entryY=1;entryDx=0;entryDy=0;" parent="1" source="oy7YL8Xd5E4N8mvJYCTs-124" target="oy7YL8Xd5E4N8mvJYCTs-37" edge="1">
          <mxGeometry width="50" height="50" relative="1" as="geometry">
            <mxPoint x="931" y="770" as="sourcePoint" />
            <mxPoint x="820" y="666" as="targetPoint" />
          </mxGeometry>
        </mxCell>
        <mxCell id="oy7YL8Xd5E4N8mvJYCTs-40" value="&lt;div&gt;GeoLokacija&lt;/div&gt;" style="ellipse;whiteSpace=wrap;html=1;align=center;" parent="1" vertex="1">
          <mxGeometry x="975" y="691" width="80" height="40" as="geometry" />
        </mxCell>
        <mxCell id="oy7YL8Xd5E4N8mvJYCTs-41" value="" style="endArrow=none;html=1;rounded=0;exitX=1;exitY=0;exitDx=0;exitDy=0;entryX=0.5;entryY=1;entryDx=0;entryDy=0;" parent="1" source="oy7YL8Xd5E4N8mvJYCTs-124" target="oy7YL8Xd5E4N8mvJYCTs-40" edge="1">
          <mxGeometry width="50" height="50" relative="1" as="geometry">
            <mxPoint x="1014.04" y="769.5799999999999" as="sourcePoint" />
            <mxPoint x="920" y="666" as="targetPoint" />
          </mxGeometry>
        </mxCell>
        <mxCell id="oy7YL8Xd5E4N8mvJYCTs-42" value="pripagja_na" style="shape=rhombus;perimeter=rhombusPerimeter;whiteSpace=wrap;html=1;align=center;double=1;" parent="1" vertex="1">
          <mxGeometry x="660" y="770" width="120" height="60" as="geometry" />
        </mxCell>
        <mxCell id="oy7YL8Xd5E4N8mvJYCTs-43" value="1" style="endArrow=none;html=1;rounded=0;exitX=1;exitY=0.5;exitDx=0;exitDy=0;entryX=0;entryY=0.5;entryDx=0;entryDy=0;" parent="1" source="oy7YL8Xd5E4N8mvJYCTs-31" target="oy7YL8Xd5E4N8mvJYCTs-42" edge="1">
          <mxGeometry x="1" y="10" width="50" height="50" relative="1" as="geometry">
            <mxPoint x="865" y="930" as="sourcePoint" />
            <mxPoint x="915" y="880" as="targetPoint" />
            <mxPoint as="offset" />
          </mxGeometry>
        </mxCell>
        <mxCell id="oy7YL8Xd5E4N8mvJYCTs-46" value="&lt;div&gt;e_sosed_so&lt;/div&gt;" style="shape=rhombus;perimeter=rhombusPerimeter;whiteSpace=wrap;html=1;align=center;" parent="1" vertex="1">
          <mxGeometry x="430" y="880" width="120" height="60" as="geometry" />
        </mxCell>
        <mxCell id="oy7YL8Xd5E4N8mvJYCTs-47" value="GeoShirina" style="ellipse;whiteSpace=wrap;html=1;align=center;" parent="1" vertex="1">
          <mxGeometry x="941" y="610" width="80" height="40" as="geometry" />
        </mxCell>
        <mxCell id="oy7YL8Xd5E4N8mvJYCTs-48" value="" style="endArrow=none;html=1;rounded=0;exitX=0.5;exitY=1;exitDx=0;exitDy=0;entryX=0;entryY=0;entryDx=0;entryDy=0;" parent="1" source="oy7YL8Xd5E4N8mvJYCTs-47" target="oy7YL8Xd5E4N8mvJYCTs-40" edge="1">
          <mxGeometry width="50" height="50" relative="1" as="geometry">
            <mxPoint x="981" y="649.9999999999998" as="sourcePoint" />
            <mxPoint x="991" y="860" as="targetPoint" />
          </mxGeometry>
        </mxCell>
        <mxCell id="oy7YL8Xd5E4N8mvJYCTs-49" value="GeoDolzina" style="ellipse;whiteSpace=wrap;html=1;align=center;" parent="1" vertex="1">
          <mxGeometry x="1041" y="610" width="80" height="40" as="geometry" />
        </mxCell>
        <mxCell id="oy7YL8Xd5E4N8mvJYCTs-50" value="" style="endArrow=none;html=1;rounded=0;exitX=1;exitY=0;exitDx=0;exitDy=0;entryX=0.5;entryY=1;entryDx=0;entryDy=0;" parent="1" source="oy7YL8Xd5E4N8mvJYCTs-40" target="oy7YL8Xd5E4N8mvJYCTs-49" edge="1">
          <mxGeometry width="50" height="50" relative="1" as="geometry">
            <mxPoint x="981" y="630" as="sourcePoint" />
            <mxPoint x="1031" y="580" as="targetPoint" />
          </mxGeometry>
        </mxCell>
        <mxCell id="oy7YL8Xd5E4N8mvJYCTs-51" value="N" style="endArrow=none;html=1;rounded=0;exitX=0;exitY=0.5;exitDx=0;exitDy=0;entryX=0.25;entryY=1;entryDx=0;entryDy=0;" parent="1" source="oy7YL8Xd5E4N8mvJYCTs-46" target="oy7YL8Xd5E4N8mvJYCTs-31" edge="1">
          <mxGeometry x="-0.7464" y="-9" width="50" height="50" relative="1" as="geometry">
            <mxPoint x="490" y="920" as="sourcePoint" />
            <mxPoint x="540" y="870" as="targetPoint" />
            <mxPoint as="offset" />
          </mxGeometry>
        </mxCell>
        <mxCell id="oy7YL8Xd5E4N8mvJYCTs-52" value="M" style="endArrow=none;html=1;rounded=0;entryX=0.75;entryY=1;entryDx=0;entryDy=0;exitX=0.5;exitY=0;exitDx=0;exitDy=0;" parent="1" source="oy7YL8Xd5E4N8mvJYCTs-46" target="oy7YL8Xd5E4N8mvJYCTs-31" edge="1">
          <mxGeometry x="-0.6769" y="-11" width="50" height="50" relative="1" as="geometry">
            <mxPoint x="640" y="880" as="sourcePoint" />
            <mxPoint x="690" y="830" as="targetPoint" />
            <mxPoint x="1" as="offset" />
          </mxGeometry>
        </mxCell>
        <mxCell id="oy7YL8Xd5E4N8mvJYCTs-54" value="" style="endArrow=none;html=1;rounded=0;entryX=0.5;entryY=1;entryDx=0;entryDy=0;exitX=0.5;exitY=0;exitDx=0;exitDy=0;" parent="1" source="oy7YL8Xd5E4N8mvJYCTs-55" target="oy7YL8Xd5E4N8mvJYCTs-46" edge="1">
          <mxGeometry width="50" height="50" relative="1" as="geometry">
            <mxPoint x="660" y="980" as="sourcePoint" />
            <mxPoint x="700" y="830" as="targetPoint" />
          </mxGeometry>
        </mxCell>
        <mxCell id="oy7YL8Xd5E4N8mvJYCTs-55" value="Rastojanie" style="ellipse;whiteSpace=wrap;html=1;align=center;" parent="1" vertex="1">
          <mxGeometry x="440" y="980" width="100" height="40" as="geometry" />
        </mxCell>
        <mxCell id="oy7YL8Xd5E4N8mvJYCTs-60" value="&lt;u&gt;ime&lt;/u&gt;" style="ellipse;whiteSpace=wrap;html=1;align=center;" parent="1" vertex="1">
          <mxGeometry x="470" y="30" width="100" height="40" as="geometry" />
        </mxCell>
        <mxCell id="oy7YL8Xd5E4N8mvJYCTs-61" value="" style="endArrow=none;html=1;rounded=0;exitX=0.5;exitY=1;exitDx=0;exitDy=0;entryX=0.25;entryY=0;entryDx=0;entryDy=0;" parent="1" source="oy7YL8Xd5E4N8mvJYCTs-60" target="oy7YL8Xd5E4N8mvJYCTs-109" edge="1">
          <mxGeometry width="50" height="50" relative="1" as="geometry">
            <mxPoint x="285.35533905932743" y="272.92786437626893" as="sourcePoint" />
            <mxPoint x="410" y="250" as="targetPoint" />
          </mxGeometry>
        </mxCell>
        <mxCell id="oy7YL8Xd5E4N8mvJYCTs-62" value="" style="endArrow=none;html=1;rounded=0;entryX=0.5;entryY=1;entryDx=0;entryDy=0;exitX=0.75;exitY=0;exitDx=0;exitDy=0;" parent="1" source="oy7YL8Xd5E4N8mvJYCTs-109" target="oy7YL8Xd5E4N8mvJYCTs-63" edge="1">
          <mxGeometry width="50" height="50" relative="1" as="geometry">
            <mxPoint x="375" y="267.07" as="sourcePoint" />
            <mxPoint x="470" y="250" as="targetPoint" />
          </mxGeometry>
        </mxCell>
        <mxCell id="oy7YL8Xd5E4N8mvJYCTs-63" value="datum na kreacija" style="ellipse;whiteSpace=wrap;html=1;align=center;" parent="1" vertex="1">
          <mxGeometry x="590" y="30" width="110" height="40" as="geometry" />
        </mxCell>
        <mxCell id="oy7YL8Xd5E4N8mvJYCTs-64" value="spodeluva_lista_so" style="shape=rhombus;perimeter=rhombusPerimeter;whiteSpace=wrap;html=1;align=center;" parent="1" vertex="1">
          <mxGeometry x="-30" y="155" width="130" height="70" as="geometry" />
        </mxCell>
        <mxCell id="oy7YL8Xd5E4N8mvJYCTs-65" value="1" style="endArrow=none;html=1;rounded=0;entryX=0;entryY=1;entryDx=0;entryDy=0;exitX=0.5;exitY=0;exitDx=0;exitDy=0;" parent="1" source="oy7YL8Xd5E4N8mvJYCTs-64" target="oy7YL8Xd5E4N8mvJYCTs-1" edge="1">
          <mxGeometry x="-0.85" y="11" width="50" height="50" relative="1" as="geometry">
            <mxPoint x="100" y="180" as="sourcePoint" />
            <mxPoint x="150" y="130" as="targetPoint" />
            <mxPoint as="offset" />
          </mxGeometry>
        </mxCell>
        <mxCell id="oy7YL8Xd5E4N8mvJYCTs-66" value="N" style="endArrow=none;html=1;rounded=0;exitX=1;exitY=0.5;exitDx=0;exitDy=0;entryX=0;entryY=1;entryDx=0;entryDy=0;" parent="1" source="oy7YL8Xd5E4N8mvJYCTs-64" target="oy7YL8Xd5E4N8mvJYCTs-1" edge="1">
          <mxGeometry x="-0.7509" y="-10" width="50" height="50" relative="1" as="geometry">
            <mxPoint x="170" y="220" as="sourcePoint" />
            <mxPoint x="220" y="170" as="targetPoint" />
            <mxPoint as="offset" />
          </mxGeometry>
        </mxCell>
        <mxCell id="oy7YL8Xd5E4N8mvJYCTs-67" value="" style="endArrow=none;html=1;rounded=0;entryX=0;entryY=0.5;entryDx=0;entryDy=0;exitX=1;exitY=0;exitDx=0;exitDy=0;" parent="1" source="oy7YL8Xd5E4N8mvJYCTs-69" target="oy7YL8Xd5E4N8mvJYCTs-64" edge="1">
          <mxGeometry width="50" height="50" relative="1" as="geometry">
            <mxPoint x="60" y="300" as="sourcePoint" />
            <mxPoint x="70" y="310" as="targetPoint" />
          </mxGeometry>
        </mxCell>
        <mxCell id="oy7YL8Xd5E4N8mvJYCTs-69" value="Komentar" style="ellipse;whiteSpace=wrap;html=1;align=center;" parent="1" vertex="1">
          <mxGeometry x="-280" y="165" width="100" height="40" as="geometry" />
        </mxCell>
        <mxCell id="oy7YL8Xd5E4N8mvJYCTs-70" value="datum na spodeluvanje" style="ellipse;whiteSpace=wrap;html=1;align=center;" parent="1" vertex="1">
          <mxGeometry x="-140" y="280" width="100" height="40" as="geometry" />
        </mxCell>
        <mxCell id="oy7YL8Xd5E4N8mvJYCTs-72" value="pripagja_na" style="shape=rhombus;perimeter=rhombusPerimeter;whiteSpace=wrap;html=1;align=center;" parent="1" vertex="1">
          <mxGeometry x="660" y="200" width="120" height="60" as="geometry" />
        </mxCell>
        <mxCell id="oy7YL8Xd5E4N8mvJYCTs-75" value="M" style="endArrow=none;html=1;rounded=0;exitX=1;exitY=0.5;exitDx=0;exitDy=0;entryX=0;entryY=0;entryDx=0;entryDy=0;" parent="1" source="oy7YL8Xd5E4N8mvJYCTs-109" target="oy7YL8Xd5E4N8mvJYCTs-72" edge="1">
          <mxGeometry x="0.7517" y="13" width="50" height="50" relative="1" as="geometry">
            <mxPoint x="500" y="220" as="sourcePoint" />
            <mxPoint x="570" y="190" as="targetPoint" />
            <mxPoint as="offset" />
          </mxGeometry>
        </mxCell>
        <mxCell id="oy7YL8Xd5E4N8mvJYCTs-76" value="N" style="endArrow=none;html=1;rounded=0;exitX=0.5;exitY=1;exitDx=0;exitDy=0;entryX=0.5;entryY=0;entryDx=0;entryDy=0;" parent="1" source="oy7YL8Xd5E4N8mvJYCTs-72" target="oy7YL8Xd5E4N8mvJYCTs-25" edge="1">
          <mxGeometry x="-0.8877" y="11" width="50" height="50" relative="1" as="geometry">
            <mxPoint x="510" y="230" as="sourcePoint" />
            <mxPoint x="620" y="230" as="targetPoint" />
            <mxPoint as="offset" />
          </mxGeometry>
        </mxCell>
        <mxCell id="oy7YL8Xd5E4N8mvJYCTs-80" value="M" style="endArrow=none;html=1;rounded=0;entryX=1;entryY=1;entryDx=0;entryDy=0;exitX=0;exitY=0.5;exitDx=0;exitDy=0;" parent="1" source="oy7YL8Xd5E4N8mvJYCTs-105" target="oy7YL8Xd5E4N8mvJYCTs-1" edge="1">
          <mxGeometry x="0.8824" y="-10" width="50" height="50" relative="1" as="geometry">
            <mxPoint x="280" y="190" as="sourcePoint" />
            <mxPoint x="280" y="170" as="targetPoint" />
            <mxPoint as="offset" />
          </mxGeometry>
        </mxCell>
        <mxCell id="oy7YL8Xd5E4N8mvJYCTs-85" value="" style="endArrow=none;html=1;rounded=0;exitX=0.5;exitY=1;exitDx=0;exitDy=0;entryX=1;entryY=0;entryDx=0;entryDy=0;" parent="1" source="oy7YL8Xd5E4N8mvJYCTs-64" target="oy7YL8Xd5E4N8mvJYCTs-70" edge="1">
          <mxGeometry width="50" height="50" relative="1" as="geometry">
            <mxPoint x="150" y="340" as="sourcePoint" />
            <mxPoint x="200" y="290" as="targetPoint" />
          </mxGeometry>
        </mxCell>
        <mxCell id="oy7YL8Xd5E4N8mvJYCTs-86" value="Turisticka agencija" style="rounded=0;whiteSpace=wrap;html=1;" parent="1" vertex="1">
          <mxGeometry x="190" y="510" width="120" height="60" as="geometry" />
        </mxCell>
        <mxCell id="oy7YL8Xd5E4N8mvJYCTs-87" value="&lt;u&gt;Ime&lt;/u&gt;" style="ellipse;whiteSpace=wrap;html=1;align=center;" parent="1" vertex="1">
          <mxGeometry x="30" y="490" width="100" height="40" as="geometry" />
        </mxCell>
        <mxCell id="oy7YL8Xd5E4N8mvJYCTs-88" value="" style="endArrow=none;html=1;rounded=0;entryX=0;entryY=0;entryDx=0;entryDy=0;exitX=1;exitY=0.5;exitDx=0;exitDy=0;" parent="1" source="oy7YL8Xd5E4N8mvJYCTs-87" target="oy7YL8Xd5E4N8mvJYCTs-86" edge="1">
          <mxGeometry width="50" height="50" relative="1" as="geometry">
            <mxPoint x="150" y="500" as="sourcePoint" />
            <mxPoint x="200" y="450" as="targetPoint" />
          </mxGeometry>
        </mxCell>
        <mxCell id="oy7YL8Xd5E4N8mvJYCTs-89" value="Lokacija" style="ellipse;whiteSpace=wrap;html=1;align=center;" parent="1" vertex="1">
          <mxGeometry x="30" y="570" width="100" height="40" as="geometry" />
        </mxCell>
        <mxCell id="oy7YL8Xd5E4N8mvJYCTs-90" value="" style="endArrow=none;html=1;rounded=0;exitX=1;exitY=0.5;exitDx=0;exitDy=0;entryX=0;entryY=1;entryDx=0;entryDy=0;" parent="1" source="oy7YL8Xd5E4N8mvJYCTs-89" target="oy7YL8Xd5E4N8mvJYCTs-86" edge="1">
          <mxGeometry width="50" height="50" relative="1" as="geometry">
            <mxPoint x="190" y="400" as="sourcePoint" />
            <mxPoint x="240" y="350" as="targetPoint" />
          </mxGeometry>
        </mxCell>
        <mxCell id="oy7YL8Xd5E4N8mvJYCTs-100" value="1" style="endArrow=none;html=1;rounded=0;exitX=1;exitY=0.5;exitDx=0;exitDy=0;entryX=0;entryY=0.5;entryDx=0;entryDy=0;" parent="1" source="oy7YL8Xd5E4N8mvJYCTs-86" target="oy7YL8Xd5E4N8mvJYCTs-106" edge="1">
          <mxGeometry x="1" y="11" width="50" height="50" relative="1" as="geometry">
            <mxPoint x="300" y="490" as="sourcePoint" />
            <mxPoint x="335" y="410.0000000000002" as="targetPoint" />
            <mxPoint x="4" y="1" as="offset" />
          </mxGeometry>
        </mxCell>
        <mxCell id="oy7YL8Xd5E4N8mvJYCTs-104" value="N" style="shape=link;html=1;rounded=0;entryX=0;entryY=0.5;entryDx=0;entryDy=0;exitX=1;exitY=0.5;exitDx=0;exitDy=0;" parent="1" source="oy7YL8Xd5E4N8mvJYCTs-105" target="oy7YL8Xd5E4N8mvJYCTs-109" edge="1">
          <mxGeometry x="-1" y="10" relative="1" as="geometry">
            <mxPoint x="340" y="220" as="sourcePoint" />
            <mxPoint x="380" y="220" as="targetPoint" />
            <mxPoint as="offset" />
          </mxGeometry>
        </mxCell>
        <mxCell id="oy7YL8Xd5E4N8mvJYCTs-105" value="kreira" style="shape=rhombus;double=1;perimeter=rhombusPerimeter;whiteSpace=wrap;html=1;align=center;" parent="1" vertex="1">
          <mxGeometry x="370" y="120" width="110" height="60" as="geometry" />
        </mxCell>
        <mxCell id="oy7YL8Xd5E4N8mvJYCTs-106" value="organizira" style="shape=rhombus;double=1;perimeter=rhombusPerimeter;whiteSpace=wrap;html=1;align=center;" parent="1" vertex="1">
          <mxGeometry x="365" y="480" width="110" height="60" as="geometry" />
        </mxCell>
        <mxCell id="oy7YL8Xd5E4N8mvJYCTs-107" value="N" style="shape=link;html=1;rounded=0;exitX=0.5;exitY=0;exitDx=0;exitDy=0;entryX=1;entryY=1;entryDx=0;entryDy=0;" parent="1" source="oy7YL8Xd5E4N8mvJYCTs-106" target="oy7YL8Xd5E4N8mvJYCTs-111" edge="1">
          <mxGeometry x="-0.7814" y="-15" relative="1" as="geometry">
            <mxPoint x="430" y="540" as="sourcePoint" />
            <mxPoint x="500" y="410" as="targetPoint" />
            <mxPoint as="offset" />
          </mxGeometry>
        </mxCell>
        <mxCell id="oy7YL8Xd5E4N8mvJYCTs-109" value="lista na turisticki mesta" style="shape=ext;margin=3;double=1;whiteSpace=wrap;html=1;align=center;" parent="1" vertex="1">
          <mxGeometry x="535" y="125" width="100" height="40" as="geometry" />
        </mxCell>
        <mxCell id="oy7YL8Xd5E4N8mvJYCTs-111" value="Patuvanje" style="shape=ext;margin=3;double=1;whiteSpace=wrap;html=1;align=center;" parent="1" vertex="1">
          <mxGeometry x="230" y="370" width="100" height="35" as="geometry" />
        </mxCell>
        <mxCell id="oy7YL8Xd5E4N8mvJYCTs-112" value="M" style="endArrow=none;html=1;rounded=0;exitX=1;exitY=0;exitDx=0;exitDy=0;entryX=0;entryY=1;entryDx=0;entryDy=0;shape=link;" parent="1" source="oy7YL8Xd5E4N8mvJYCTs-106" target="oy7YL8Xd5E4N8mvJYCTs-25" edge="1">
          <mxGeometry x="-0.9699" y="15" width="50" height="50" relative="1" as="geometry">
            <mxPoint x="300" y="420" as="sourcePoint" />
            <mxPoint x="450" y="420" as="targetPoint" />
            <mxPoint as="offset" />
          </mxGeometry>
        </mxCell>
        <mxCell id="oy7YL8Xd5E4N8mvJYCTs-117" value="datum pocetok" style="ellipse;whiteSpace=wrap;html=1;align=center;" parent="1" vertex="1">
          <mxGeometry x="140" y="420" width="60" height="40" as="geometry" />
        </mxCell>
        <mxCell id="oy7YL8Xd5E4N8mvJYCTs-118" value="datum kraj" style="ellipse;whiteSpace=wrap;html=1;align=center;" parent="1" vertex="1">
          <mxGeometry x="100" y="350" width="60" height="40" as="geometry" />
        </mxCell>
        <mxCell id="oy7YL8Xd5E4N8mvJYCTs-119" value="" style="endArrow=none;html=1;rounded=0;exitX=1;exitY=0.5;exitDx=0;exitDy=0;entryX=0;entryY=0.5;entryDx=0;entryDy=0;" parent="1" source="oy7YL8Xd5E4N8mvJYCTs-118" target="oy7YL8Xd5E4N8mvJYCTs-111" edge="1">
          <mxGeometry width="50" height="50" relative="1" as="geometry">
            <mxPoint x="670" y="430" as="sourcePoint" />
            <mxPoint x="720" y="380" as="targetPoint" />
          </mxGeometry>
        </mxCell>
        <mxCell id="oy7YL8Xd5E4N8mvJYCTs-120" value="" style="endArrow=none;html=1;rounded=0;exitX=1;exitY=0;exitDx=0;exitDy=0;entryX=0;entryY=1;entryDx=0;entryDy=0;" parent="1" source="oy7YL8Xd5E4N8mvJYCTs-117" target="oy7YL8Xd5E4N8mvJYCTs-111" edge="1">
          <mxGeometry width="50" height="50" relative="1" as="geometry">
            <mxPoint x="670" y="430" as="sourcePoint" />
            <mxPoint x="720" y="380" as="targetPoint" />
          </mxGeometry>
        </mxCell>
        <mxCell id="oy7YL8Xd5E4N8mvJYCTs-121" value="Osnovna cena" style="ellipse;whiteSpace=wrap;html=1;align=center;" parent="1" vertex="1">
          <mxGeometry x="60" y="295" width="60" height="40" as="geometry" />
        </mxCell>
        <mxCell id="oy7YL8Xd5E4N8mvJYCTs-122" value="" style="endArrow=none;html=1;rounded=0;entryX=0;entryY=0;entryDx=0;entryDy=0;exitX=1;exitY=0.5;exitDx=0;exitDy=0;" parent="1" source="oy7YL8Xd5E4N8mvJYCTs-121" target="oy7YL8Xd5E4N8mvJYCTs-111" edge="1">
          <mxGeometry width="50" height="50" relative="1" as="geometry">
            <mxPoint x="750" y="640" as="sourcePoint" />
            <mxPoint x="800" y="590" as="targetPoint" />
          </mxGeometry>
        </mxCell>
        <mxCell id="oy7YL8Xd5E4N8mvJYCTs-124" value="Objekt" style="shape=ext;margin=3;double=1;whiteSpace=wrap;html=1;align=center;" parent="1" vertex="1">
          <mxGeometry x="905" y="770" width="100" height="40" as="geometry" />
        </mxCell>
        <mxCell id="oy7YL8Xd5E4N8mvJYCTs-128" value="N" style="shape=link;html=1;rounded=0;exitX=1;exitY=0.5;exitDx=0;exitDy=0;entryX=0;entryY=0.75;entryDx=0;entryDy=0;" parent="1" source="oy7YL8Xd5E4N8mvJYCTs-42" target="oy7YL8Xd5E4N8mvJYCTs-124" edge="1">
          <mxGeometry x="-0.9341" y="10" relative="1" as="geometry">
            <mxPoint x="795" y="810" as="sourcePoint" />
            <mxPoint x="955" y="810" as="targetPoint" />
            <mxPoint as="offset" />
          </mxGeometry>
        </mxCell>
        <mxCell id="oy7YL8Xd5E4N8mvJYCTs-130" value="&amp;nbsp;prisustvuva&lt;br&gt;na" style="shape=rhombus;perimeter=rhombusPerimeter;whiteSpace=wrap;html=1;align=center;" parent="1" vertex="1">
          <mxGeometry x="205" y="260" width="90" height="60" as="geometry" />
        </mxCell>
        <mxCell id="oy7YL8Xd5E4N8mvJYCTs-131" value="N" style="endArrow=none;html=1;rounded=0;entryX=0.25;entryY=1;entryDx=0;entryDy=0;exitX=0.5;exitY=0;exitDx=0;exitDy=0;" parent="1" source="oy7YL8Xd5E4N8mvJYCTs-130" target="oy7YL8Xd5E4N8mvJYCTs-1" edge="1">
          <mxGeometry x="-0.8468" y="-7" width="50" height="50" relative="1" as="geometry">
            <mxPoint x="210" y="220" as="sourcePoint" />
            <mxPoint x="260" y="170" as="targetPoint" />
            <mxPoint as="offset" />
          </mxGeometry>
        </mxCell>
        <mxCell id="oy7YL8Xd5E4N8mvJYCTs-132" value="1" style="endArrow=none;html=1;rounded=0;entryX=0.5;entryY=1;entryDx=0;entryDy=0;exitX=0.25;exitY=0;exitDx=0;exitDy=0;" parent="1" source="oy7YL8Xd5E4N8mvJYCTs-111" target="oy7YL8Xd5E4N8mvJYCTs-130" edge="1">
          <mxGeometry x="0.6881" y="8" width="50" height="50" relative="1" as="geometry">
            <mxPoint x="313" y="205" as="sourcePoint" />
            <mxPoint x="260" y="160" as="targetPoint" />
            <mxPoint y="-1" as="offset" />
          </mxGeometry>
        </mxCell>
        <mxCell id="oy7YL8Xd5E4N8mvJYCTs-134" value="fakultativno posetuva" style="shape=rhombus;perimeter=rhombusPerimeter;whiteSpace=wrap;html=1;align=center;" parent="1" vertex="1">
          <mxGeometry x="360" y="295" width="90" height="60" as="geometry" />
        </mxCell>
        <mxCell id="oy7YL8Xd5E4N8mvJYCTs-136" value="1" style="endArrow=none;html=1;rounded=0;entryX=0.75;entryY=1;entryDx=0;entryDy=0;exitX=0;exitY=0.5;exitDx=0;exitDy=0;" parent="1" source="oy7YL8Xd5E4N8mvJYCTs-134" target="oy7YL8Xd5E4N8mvJYCTs-1" edge="1">
          <mxGeometry x="-0.9006" y="-7" width="50" height="50" relative="1" as="geometry">
            <mxPoint x="300" y="230" as="sourcePoint" />
            <mxPoint x="350" y="180" as="targetPoint" />
            <mxPoint x="1" as="offset" />
          </mxGeometry>
        </mxCell>
        <mxCell id="oy7YL8Xd5E4N8mvJYCTs-138" value="N" style="endArrow=none;html=1;rounded=0;exitX=1;exitY=0.5;exitDx=0;exitDy=0;entryX=0;entryY=0;entryDx=0;entryDy=0;" parent="1" source="oy7YL8Xd5E4N8mvJYCTs-134" target="oy7YL8Xd5E4N8mvJYCTs-25" edge="1">
          <mxGeometry x="-0.9348" y="10" width="50" height="50" relative="1" as="geometry">
            <mxPoint x="530" y="280" as="sourcePoint" />
            <mxPoint x="660" y="240" as="targetPoint" />
            <Array as="points" />
            <mxPoint as="offset" />
          </mxGeometry>
        </mxCell>
        <mxCell id="oy7YL8Xd5E4N8mvJYCTs-139" value="1" style="endArrow=none;html=1;rounded=0;entryX=0.5;entryY=1;entryDx=0;entryDy=0;exitX=0.57;exitY=0.029;exitDx=0;exitDy=0;exitPerimeter=0;" parent="1" source="oy7YL8Xd5E4N8mvJYCTs-111" target="oy7YL8Xd5E4N8mvJYCTs-134" edge="1">
          <mxGeometry x="0.6849" y="10" width="50" height="50" relative="1" as="geometry">
            <mxPoint x="350" y="310" as="sourcePoint" />
            <mxPoint x="400" y="260" as="targetPoint" />
            <mxPoint as="offset" />
          </mxGeometry>
        </mxCell>
        <mxCell id="oy7YL8Xd5E4N8mvJYCTs-140" value="datum" style="ellipse;whiteSpace=wrap;html=1;align=center;" parent="1" vertex="1">
          <mxGeometry x="435" y="230" width="40" height="20" as="geometry" />
        </mxCell>
        <mxCell id="oy7YL8Xd5E4N8mvJYCTs-141" value="" style="endArrow=none;html=1;rounded=0;exitX=1;exitY=0;exitDx=0;exitDy=0;entryX=0;entryY=1;entryDx=0;entryDy=0;" parent="1" source="oy7YL8Xd5E4N8mvJYCTs-134" target="oy7YL8Xd5E4N8mvJYCTs-140" edge="1">
          <mxGeometry width="50" height="50" relative="1" as="geometry">
            <mxPoint x="360" y="220" as="sourcePoint" />
            <mxPoint x="410" y="170" as="targetPoint" />
          </mxGeometry>
        </mxCell>
        <mxCell id="oy7YL8Xd5E4N8mvJYCTs-142" value="cena" style="ellipse;whiteSpace=wrap;html=1;align=center;" parent="1" vertex="1">
          <mxGeometry x="360" y="230" width="40" height="20" as="geometry" />
        </mxCell>
        <mxCell id="oy7YL8Xd5E4N8mvJYCTs-145" value="" style="endArrow=none;html=1;rounded=0;exitX=1;exitY=1;exitDx=0;exitDy=0;entryX=0.5;entryY=0;entryDx=0;entryDy=0;" parent="1" source="oy7YL8Xd5E4N8mvJYCTs-142" target="oy7YL8Xd5E4N8mvJYCTs-134" edge="1">
          <mxGeometry width="50" height="50" relative="1" as="geometry">
            <mxPoint x="380" y="260" as="sourcePoint" />
            <mxPoint x="430" y="210" as="targetPoint" />
          </mxGeometry>
        </mxCell>
        <mxCell id="NbHenBSnprE0DpPrcXFl-4" value="" style="verticalLabelPosition=bottom;verticalAlign=top;html=1;shape=mxgraph.basic.arc;startAngle=0.3209158277514807;endAngle=0.6810716750262913;rotation=45;" parent="1" vertex="1">
          <mxGeometry x="633" y="625" width="30" height="100" as="geometry" />
        </mxCell>
        <mxCell id="NbHenBSnprE0DpPrcXFl-6" value="" style="verticalLabelPosition=bottom;verticalAlign=top;html=1;shape=mxgraph.basic.arc;startAngle=0.3209158277514807;endAngle=0.6810716750262913;rotation=-45;" parent="1" vertex="1">
          <mxGeometry x="773" y="626" width="30" height="100" as="geometry" />
        </mxCell>
      </root>
    </mxGraphModel>
  </diagram>
</mxfile>
